REM DISCID 0D101312
REM COMMENT "ExactAudioCopy v1.1"
CATALOG 4571374912320
PERFORMER "Various Artists"
TITLE "初音ミク Project mirai こんぷり~と"
FILE "Various Artists - 初音ミク Project mirai こんぷり~と DISC3.wav" WAVE
  TRACK 01 AUDIO
    TITLE "エレクトリック・ラブ feat. 初音ミク"
    PERFORMER "八王子P"
    ISRC JPJ931500095
    INDEX 01 00:00:00
  TRACK 02 AUDIO
    TITLE "メランコリック feat. 鏡音リン"
    PERFORMER "Junky"
    ISRC JPJ931500096
    INDEX 00 04:47:30
    INDEX 01 04:49:00
  TRACK 03 AUDIO
    TITLE "いーあるふぁんくらぶ　feat. 鏡音リン, GUMI"
    PERFORMER "みきとP"
    ISRC JPJ931500097
    INDEX 00 08:26:30
    INDEX 01 08:28:00
  TRACK 04 AUDIO
    TITLE "えれくとりっく・えんじぇぅ feat. 初音ミク"
    PERFORMER "ヤスオ"
    ISRC JPJ931500098
    INDEX 00 12:24:30
    INDEX 01 12:26:00
  TRACK 05 AUDIO
    TITLE "インタビュア feat. 巡音ルカ"
    PERFORMER "クワガタP"
    ISRC JPJ931500099
    INDEX 00 15:28:30
    INDEX 01 15:30:00
  TRACK 06 AUDIO
    TITLE "トリコロール・エア.ライン feat. 初音ミク"
    PERFORMER "あつぞうくん"
    ISRC JPJ931500100
    INDEX 00 19:52:30
    INDEX 01 19:54:00
  TRACK 07 AUDIO
    TITLE "ピアノ×フォルテ×スキャンダル feat. MEIKO"
    PERFORMER "OSTER project"
    ISRC JPJ931500101
    INDEX 00 23:17:30
    INDEX 01 23:19:00
  TRACK 08 AUDIO
    TITLE "君の体温 feat. 初音ミク"
    PERFORMER "クワガタP"
    ISRC JPJ931500102
    INDEX 00 27:12:30
    INDEX 01 27:14:00
  TRACK 09 AUDIO
    TITLE "glow feat. 初音ミク"
    PERFORMER "keeno"
    ISRC JPJ931500103
    INDEX 00 31:15:30
    INDEX 01 31:17:00
  TRACK 10 AUDIO
    TITLE "トリコロール・エア・ライン　(鏡音リンボーカル Ver.)"
    PERFORMER "あつぞうくん"
    ISRC JPJ931500104
    INDEX 00 35:59:30
    INDEX 01 36:01:00
  TRACK 11 AUDIO
    TITLE "トリコロール・エア・ライン　(巡音ルカボーカル Ver.)"
    PERFORMER "あつぞうくん"
    ISRC JPJ931500105
    INDEX 00 39:24:30
    INDEX 01 39:26:00
  TRACK 12 AUDIO
    TITLE "トリコロール・エア・ライン　(MEIKOボーカル Ver.)"
    PERFORMER "あつぞうくん"
    ISRC JPJ931500106
    INDEX 00 42:49:30
    INDEX 01 42:51:00
  TRACK 13 AUDIO
    TITLE "ピアノ×フォルテ×スキャンダル　(初音ミクボーカル Ver.)"
    PERFORMER "OSTER project"
    ISRC JPJ931500107
    INDEX 00 46:14:30
    INDEX 01 46:16:00
  TRACK 14 AUDIO
    TITLE "ピアノ×フォルテ×スキャンダル　(鏡音リンボーカル Ver.)"
    PERFORMER "OSTER project"
    ISRC JPJ931500108
    INDEX 00 50:09:30
    INDEX 01 50:11:00
  TRACK 15 AUDIO
    TITLE "ピアノ×フォルテ×スキャンダル　(KAITOボーカル Ver.)"
    PERFORMER "OSTER project"
    ISRC JPJ931500109
    INDEX 00 54:04:30
    INDEX 01 54:06:00
  TRACK 16 AUDIO
    TITLE "インタビュア　(初音ミクボーカル Ver.)"
    PERFORMER "クワガタP"
    ISRC JPJ931500110
    INDEX 00 57:59:30
    INDEX 01 58:01:00
  TRACK 17 AUDIO
    TITLE "えれくとりっく・えんじぇぅ　(鏡音リンボーカル Ver.)"
    PERFORMER "ヤスオ"
    ISRC JPJ931500111
    INDEX 00 62:23:30
    INDEX 01 62:25:00
  TRACK 18 AUDIO
    TITLE "えれくとりっく・えんじぇぅ　(巡音ルカボーカル Ver.)"
    PERFORMER "ヤスオ"
    ISRC JPJ931500112
    INDEX 00 65:27:30
    INDEX 01 65:29:00
